<svg width="1331" height="851" viewBox="0 0 1331 851" fill="none" xmlns="http://www.w3.org/2000/svg">
<path d="M908 480L977 442L935.375 478.386L943.75 445.105L908 480Z" fill="#545672" fill-opacity="0.1"/>
<path d="M69 418L138 380L96.375 416.386L104.75 383.105L69 418Z" fill="#545672" fill-opacity="0.1"/>
<path d="M617 797L686 759L644.375 795.386L652.75 762.105L617 797Z" fill="#545672" fill-opacity="0.1"/>
<path d="M763 78L832 40L790.375 76.3856L798.75 43.1046L763 78Z" fill="#545672" fill-opacity="0.1"/>
<path d="M279 164L348 126L306.375 162.386L314.75 129.105L279 164Z" fill="#545672" fill-opacity="0.1"/>
<path d="M0 851L69 813L27.375 849.386L35.75 816.105L0 851Z" fill="#545672" fill-opacity="0.1"/>
<path d="M0 38L69 0L27.375 36.3856L35.75 3.10458L0 38Z" fill="#545672" fill-opacity="0.1"/>
<path d="M244 666L313 628L271.375 664.386L279.75 631.105L244 666Z" fill="#545672" fill-opacity="0.1"/>
<path d="M1139 728L1208 690L1166.38 726.386L1174.75 693.105L1139 728Z" fill="#545672" fill-opacity="0.1"/>
<path d="M1228 38L1297 0L1255.38 36.3856L1263.75 3.10458L1228 38Z" fill="#545672" fill-opacity="0.1"/>
<path d="M1031 176L1100 138L1058.38 174.386L1066.75 141.105L1031 176Z" fill="#545672" fill-opacity="0.1"/>
<path d="M1262 290L1331 252L1289.38 288.386L1297.75 255.105L1262 290Z" fill="#545672" fill-opacity="0.1"/>
</svg>
