<svg width="24" height="16" viewBox="0 0 24 16" fill="none" xmlns="http://www.w3.org/2000/svg">
<path d="M16.0246 8.19133C16.0246 9.91099 14.2259 11.3006 12.0001 11.3006C9.77421 11.3006 7.97559 9.91099 7.97559 8.19133C7.97559 6.47168 9.77421 5.08209 12.0001 5.08209C14.2259 5.08209 16.0246 6.47168 16.0246 8.19133Z" stroke="white" stroke-linecap="round" stroke-linejoin="round"/>
<path d="M12 15.3739C15.9683 15.3739 19.6668 13.5674 22.2412 10.4408C23.2529 9.21616 23.2529 7.15778 22.2412 5.93316C19.6668 2.80651 15.9683 1 12 1C8.03167 1 4.33316 2.80651 1.75881 5.93316C0.747062 7.15778 0.747062 9.21616 1.75881 10.4408C4.33316 13.5674 8.03167 15.3739 12 15.3739Z" stroke="white" stroke-linecap="round" stroke-linejoin="round"/>
</svg>
