<svg width="356" height="164" viewBox="0 0 356 164" fill="none" xmlns="http://www.w3.org/2000/svg">
<path d="M44.9219 102V96.9375H53.3594V55.7812H44.9219V50.6719H68.6406V55.7812H60.0156V96.9375H68.6406V102H44.9219ZM92.0312 102.844C87.75 102.844 84.3281 101.297 81.7656 98.2031C79.2344 95.1094 77.9688 90.9844 77.9688 85.8281C77.9688 81.6719 78.7031 78.0781 80.1719 75.0469C81.6719 71.9844 83.6875 69.625 86.2188 67.9688C88.75 66.2812 91.5781 65.4375 94.7031 65.4375C96.1719 65.4375 97.75 65.75 99.4375 66.375C101.125 66.9688 102.641 67.6562 103.984 68.4375V58.5938C103.984 55.7812 103.922 53.3125 103.797 51.1875C103.703 49.0312 103.484 47.2188 103.141 45.75H110.5V83.3906C110.5 87.8281 110.75 91.5469 111.25 94.5469C111.75 97.5469 112.375 100.031 113.125 102H106.797C106.547 101.406 106.234 100.5 105.859 99.2812C105.516 98.0625 105.188 96.8125 104.875 95.5312C101.438 100.406 97.1562 102.844 92.0312 102.844ZM93.2969 97.2656C94.7344 97.2656 96.1406 96.8125 97.5156 95.9062C98.9219 95 100.188 93.8281 101.312 92.3906C102.469 90.9531 103.359 89.4688 103.984 87.9375V74.0625C102.266 73.125 100.719 72.4531 99.3438 72.0469C98 71.6406 96.4531 71.4375 94.7031 71.4375C92.0469 71.4375 89.6719 72.625 87.5781 75C85.5156 77.3438 84.4844 80.6094 84.4844 84.7969C84.4844 88.8594 85.1875 91.9531 86.5938 94.0781C88 96.2031 90.2344 97.2656 93.2969 97.2656ZM122.781 102C122.781 102 122.781 101.375 122.781 100.125C122.781 98.8438 122.781 97.2188 122.781 95.25C122.781 93.2812 122.781 91.2344 122.781 89.1094C122.781 86.9844 122.781 85.0781 122.781 83.3906C122.781 79.9531 122.75 76.6875 122.688 73.5938C122.656 70.4688 122.516 67.9844 122.266 66.1406H129.297V85.3125C129.297 86.8125 129.312 88.6406 129.344 90.7969C129.406 92.9219 129.484 95.0156 129.578 97.0781C129.703 99.1094 129.844 100.75 130 102H122.781ZM125.969 59.4844C124.656 59.4844 123.594 59.0156 122.781 58.0781C121.969 57.1406 121.562 56.0312 121.562 54.75C121.562 53.4375 121.969 52.3125 122.781 51.375C123.594 50.4375 124.656 49.9688 125.969 49.9688C127.281 49.9688 128.359 50.4375 129.203 51.375C130.078 52.3125 130.516 53.4375 130.516 54.75C130.516 56.0312 130.078 57.1406 129.203 58.0781C128.359 59.0156 127.281 59.4844 125.969 59.4844ZM150.766 102.844C147.453 102.844 144.719 101.859 142.562 99.8906C140.406 97.9219 139.328 95.6406 139.328 93.0469C139.328 91.2656 139.734 89.4844 140.547 87.7031C141.391 85.9219 142.828 84.375 144.859 83.0625C146.922 81.75 149.766 80.9219 153.391 80.5781C154.203 80.4844 155.266 80.375 156.578 80.25C157.891 80.125 159.141 80.0156 160.328 79.9219C161.547 79.7969 162.391 79.7188 162.859 79.6875V77.0625C162.859 74.9375 162.109 73.4062 160.609 72.4688C159.141 71.5312 157.078 71.0625 154.422 71.0625C152.578 71.0625 150.719 71.4375 148.844 72.1875C147 72.9375 145.062 74.0312 143.031 75.4688C143.031 74.6875 143.062 73.5469 143.125 72.0469C143.188 70.5156 143.266 69.375 143.359 68.625C145.172 67.8438 147.062 67.125 149.031 66.4688C151.031 65.7812 153.359 65.4375 156.016 65.4375C160.078 65.4375 163.312 66.3906 165.719 68.2969C168.156 70.1719 169.375 72.5 169.375 75.2812V89.0156C169.375 91.5469 169.609 93.8594 170.078 95.9531C170.578 98.0156 171.219 100.031 172 102H165.672C165.453 101.438 165.172 100.672 164.828 99.7031C164.484 98.7344 164.188 97.6875 163.938 96.5625C161.844 98.7812 159.672 100.391 157.422 101.391C155.172 102.359 152.953 102.844 150.766 102.844ZM151.797 97.0781C153.609 97.0781 155.375 96.7031 157.094 95.9531C158.844 95.2031 160.766 93.4219 162.859 90.6094V84.6094C162.297 84.6406 161.422 84.7188 160.234 84.8438C159.078 84.9375 157.891 85.0469 156.672 85.1719C155.453 85.2969 154.469 85.4062 153.719 85.5C150.75 85.8438 148.656 86.6406 147.438 87.8906C146.25 89.1094 145.656 90.5312 145.656 92.1562C145.656 93.7188 146.203 94.9375 147.297 95.8125C148.391 96.6562 149.891 97.0781 151.797 97.0781ZM180.812 102C180.812 102 180.812 101.219 180.812 99.6562C180.812 98.0938 180.812 96.1406 180.812 93.7969C180.812 91.4219 180.812 89.0312 180.812 86.625C180.812 84.1875 180.812 82.1094 180.812 80.3906C180.812 76.9531 180.609 74.0312 180.203 71.625C179.828 69.1875 179.438 67.3594 179.031 66.1406H185.359C185.641 66.8906 185.906 68.0156 186.156 69.5156C186.438 71.0156 186.641 72.1875 186.766 73.0312C189.016 70.3438 191.281 68.4062 193.562 67.2188C195.844 66.0312 198.219 65.4375 200.688 65.4375C204.406 65.4375 207.266 66.6719 209.266 69.1406C211.266 71.5781 212.266 75.2188 212.266 80.0625C212.266 81.2188 212.266 82.7188 212.266 84.5625C212.266 86.375 212.266 88.2812 212.266 90.2812C212.266 92.2812 212.266 94.1719 212.266 95.9531C212.266 97.7344 212.266 99.1875 212.266 100.312C212.266 101.438 212.266 102 212.266 102H205.75C205.75 102 205.75 101.25 205.75 99.75C205.75 98.2188 205.75 96.3594 205.75 94.1719C205.75 91.9531 205.75 89.7969 205.75 87.7031C205.75 85.5781 205.75 83.9062 205.75 82.6875C205.75 78.2812 205.172 75.3438 204.016 73.875C202.891 72.375 201.125 71.625 198.719 71.625C197.031 71.625 195.406 72.125 193.844 73.125C192.312 74.125 190.969 75.3906 189.812 76.9219C188.688 78.4531 187.859 80.0156 187.328 81.6094V102H180.812ZM231.766 102.844C228.453 102.844 225.719 101.859 223.562 99.8906C221.406 97.9219 220.328 95.6406 220.328 93.0469C220.328 91.2656 220.734 89.4844 221.547 87.7031C222.391 85.9219 223.828 84.375 225.859 83.0625C227.922 81.75 230.766 80.9219 234.391 80.5781C235.203 80.4844 236.266 80.375 237.578 80.25C238.891 80.125 240.141 80.0156 241.328 79.9219C242.547 79.7969 243.391 79.7188 243.859 79.6875V77.0625C243.859 74.9375 243.109 73.4062 241.609 72.4688C240.141 71.5312 238.078 71.0625 235.422 71.0625C233.578 71.0625 231.719 71.4375 229.844 72.1875C228 72.9375 226.062 74.0312 224.031 75.4688C224.031 74.6875 224.062 73.5469 224.125 72.0469C224.188 70.5156 224.266 69.375 224.359 68.625C226.172 67.8438 228.062 67.125 230.031 66.4688C232.031 65.7812 234.359 65.4375 237.016 65.4375C241.078 65.4375 244.312 66.3906 246.719 68.2969C249.156 70.1719 250.375 72.5 250.375 75.2812V89.0156C250.375 91.5469 250.609 93.8594 251.078 95.9531C251.578 98.0156 252.219 100.031 253 102H246.672C246.453 101.438 246.172 100.672 245.828 99.7031C245.484 98.7344 245.188 97.6875 244.938 96.5625C242.844 98.7812 240.672 100.391 238.422 101.391C236.172 102.359 233.953 102.844 231.766 102.844ZM232.797 97.0781C234.609 97.0781 236.375 96.7031 238.094 95.9531C239.844 95.2031 241.766 93.4219 243.859 90.6094V84.6094C243.297 84.6406 242.422 84.7188 241.234 84.8438C240.078 84.9375 238.891 85.0469 237.672 85.1719C236.453 85.2969 235.469 85.4062 234.719 85.5C231.75 85.8438 229.656 86.6406 228.438 87.8906C227.25 89.1094 226.656 90.5312 226.656 92.1562C226.656 93.7188 227.203 94.9375 228.297 95.8125C229.391 96.6562 230.891 97.0781 232.797 97.0781ZM263.031 102V62.2969C263.031 55.3281 262.797 49.8125 262.328 45.75H269.547V85.3125C269.547 86.8125 269.562 88.6406 269.594 90.7969C269.656 92.9219 269.734 95 269.828 97.0312C269.953 99.0625 270.094 100.719 270.25 102H263.031ZM296.453 102.844C293.484 102.844 290.703 102.156 288.109 100.781C285.547 99.4062 283.484 97.3594 281.922 94.6406C280.359 91.9219 279.578 88.5781 279.578 84.6094C279.578 78.7969 281.094 74.1562 284.125 70.6875C287.156 67.1875 291.266 65.4375 296.453 65.4375C300.328 65.4375 303.312 66.2969 305.406 68.0156C307.5 69.7031 308.953 71.8281 309.766 74.3906C310.609 76.9531 311.031 79.5625 311.031 82.2188C311.031 82.5312 311.031 82.9844 311.031 83.5781C311.031 84.1719 311.016 84.6406 310.984 84.9844H284.828V80.0625H304.703C304.703 77.0312 303.875 74.7188 302.219 73.125C300.562 71.5312 298.469 70.7344 295.938 70.7344C292.844 70.7344 290.422 71.8281 288.672 74.0156C286.953 76.2031 286.094 79.625 286.094 84.2812C286.094 88.625 287.141 91.8438 289.234 93.9375C291.359 96.0312 294.062 97.0781 297.344 97.0781C299.594 97.0781 301.812 96.8281 304 96.3281C306.188 95.7969 308.359 94.875 310.516 93.5625L311.219 99.375C308.719 100.656 306.297 101.547 303.953 102.047C301.641 102.578 299.141 102.844 296.453 102.844Z" fill="#CFA616"/>
<path d="M356 22L-1.38283e-05 141L214.761 27.0556L171.551 131.278L356 22Z" fill="#EDEEFF" fill-opacity="0.25"/>
</svg>
